<?xml version="1.0" encoding="UTF-8" standalone="no"?>
<!-- Created with Inkscape (http://www.inkscape.org/) -->

<svg
   width="182.64595mm"
   height="116.87231mm"
   viewBox="0 0 182.64595 116.87232"
   version="1.1"
   id="svg1"
   inkscape:version="1.3 (0e150ed6c4, 2023-07-21)"
   sodipodi:docname="MovieBaseSplashPage.svg"
   xmlns:inkscape="http://www.inkscape.org/namespaces/inkscape"
   xmlns:sodipodi="http://sodipodi.sourceforge.net/DTD/sodipodi-0.dtd"
   xmlns="http://www.w3.org/2000/svg"
   xmlns:svg="http://www.w3.org/2000/svg">
  <sodipodi:namedview
     id="namedview1"
     pagecolor="#ffffff"
     bordercolor="#000000"
     borderopacity="0.25"
     inkscape:showpageshadow="2"
     inkscape:pageopacity="0.0"
     inkscape:pagecheckerboard="0"
     inkscape:deskcolor="#d1d1d1"
     inkscape:document-units="mm"
     inkscape:zoom="1.5385588"
     inkscape:cx="323.67954"
     inkscape:cy="299.30608"
     inkscape:window-width="2256"
     inkscape:window-height="1430"
     inkscape:window-x="0"
     inkscape:window-y="0"
     inkscape:window-maximized="1"
     inkscape:current-layer="layer1" />
  <defs
     id="defs1">
    <inkscape:path-effect
       effect="fillet_chamfer"
       id="path-effect3"
       is_visible="true"
       lpeversion="1"
       nodesatellites_param="F,0,0,1,0,7.0379326,0,1 @ F,0,0,1,0,5.6256344,0,1 @ F,0,0,1,0,8.8996805,0,1"
       radius="0"
       unit="px"
       method="auto"
       mode="F"
       chamfer_steps="1"
       flexible="false"
       use_knot_distance="true"
       apply_no_radius="true"
       apply_with_radius="true"
       only_selected="false"
       hide_knots="false" />
  </defs>
  <g
     inkscape:label="Layer 1"
     inkscape:groupmode="layer"
     id="layer1"
     transform="translate(-10.608509,-35.2743)">
    <g
       id="g3">
      <rect
         style="fill:#6cbeed;fill-opacity:1;stroke-width:1.3;stroke-linejoin:round"
         id="rect1"
         width="94.328979"
         height="58.80302"
         x="61.863796"
         y="93.343597"
         ry="7.4423313"
         rx="7.4423313" />
      <path
         style="fill:#6cbeed;fill-opacity:1;stroke-width:1.3;stroke-linejoin:round"
         id="path2"
         sodipodi:type="arc"
         sodipodi:cx="43.616299"
         sodipodi:cy="104.79726"
         sodipodi:rx="33.00779"
         sodipodi:ry="33.00779"
         sodipodi:start="0"
         sodipodi:end="6.2773065"
         sodipodi:open="true"
         sodipodi:arc-type="arc"
         d="M 76.624088,104.79726 A 33.00779,33.00779 0 0 1 43.66481,137.80501 33.00779,33.00779 0 0 1 10.608652,104.89428 33.00779,33.00779 0 0 1 43.470764,71.789788 33.00779,33.00779 0 0 1 76.623518,104.60321" />
      <path
         style="fill:#6cbeed;fill-opacity:1;stroke-width:1.3;stroke-linejoin:round"
         id="path2-5"
         sodipodi:type="arc"
         sodipodi:cx="81.056419"
         sodipodi:cy="68.282089"
         sodipodi:rx="33.00779"
         sodipodi:ry="33.00779"
         sodipodi:start="0"
         sodipodi:end="6.2773065"
         sodipodi:open="true"
         sodipodi:arc-type="arc"
         d="M 114.06421,68.282089 A 33.00779,33.00779 0 0 1 81.104931,101.28984 33.00779,33.00779 0 0 1 48.048772,68.379112 33.00779,33.00779 0 0 1 80.910885,35.27462 33.00779,33.00779 0 0 1 114.06364,68.088044" />
      <path
         style="fill:#6cbeed;fill-opacity:1;stroke-width:1.3;stroke-linejoin:round"
         d="m 161.92566,117.95114 31.00882,-22.499434 a 2.8686332,2.8686332 27.018022 0 1 4.55331,2.321833 v 42.093771 a 4.8430511,4.8430511 151.44574 0 1 -7.47307,4.06671 L 162.13901,125.9063 a 4.8239752,4.8239752 88.46376 0 1 -0.21335,-7.95516 z"
         id="path3"
         inkscape:path-effect="#path-effect3"
         inkscape:original-d="M 156.22925,122.08435 197.48779,92.147905 V 148.76699 Z"
         transform="translate(-4.2333335)" />
    </g>
  </g>
</svg>
